<?xml version="1.0" encoding="UTF-8" standalone="no"?><!DOCTYPE svg PUBLIC "-//W3C//DTD SVG 1.1//EN" "http://www.w3.org/Graphics/SVG/1.1/DTD/svg11.dtd"><svg width="100%" height="100%" viewBox="0 0 200 200" version="1.1" xmlns="http://www.w3.org/2000/svg" xmlns:xlink="http://www.w3.org/1999/xlink" xml:space="preserve" xmlns:serif="http://www.serif.com/" style="fill-rule:evenodd;clip-rule:evenodd;stroke-linejoin:round;stroke-miterlimit:2;"><g id="light"></g><g id="dark"></g><rect x="0.135" y="-0.299" width="200" height="200" style="fill:#2d3748;"/><g><path d="M167.82,101.716c-4.16,7.193 -10.944,12.881 -18.177,16.805c-5.041,2.734 -10.511,4.684 -16.138,5.859c5.484,-9.589 8.544,-22.289 10.242,-33.907c3.877,-1.225 6.767,-3.479 8.844,-5.776c3.373,-3.735 8.772,-5.174 13.292,-2.962c0.031,0.017 0.061,0.031 0.092,0.048c7.999,3.986 5.463,13.67 1.845,19.933Zm13.697,-15.103c-1.228,-9.017 -8.346,-15.137 -16.863,-17.265c-6.277,-1.566 -12.615,-1.358 -18.946,-0.636c0.112,-2.935 0.143,-5.287 0.146,-6.829c0,-1.137 -0.919,-2.042 -2.056,-2.042l-123.198,0c-1.137,0 -2.056,0.905 -2.053,2.042c0.028,12.285 1.713,75.823 33.543,77.678l60.219,0c6.174,-0.361 11.202,-3.06 15.314,-7.237c7.826,-0.575 15.416,-2.001 22.752,-5.089c8.564,-3.604 16.356,-8.986 22.384,-16.093c5.64,-6.652 9.974,-15.614 8.758,-24.529Z" style="fill:#e2e8f0;fill-rule:nonzero;"/><path d="M134.233,126.337c10.927,-2.594 21.816,-8.19 29.506,-16.455c4.258,-4.575 7.886,-10.303 8.918,-16.557c1.024,-6.195 -1.791,-12.08 -8.067,-13.864c-3.329,-0.943 -6.88,-0.374 -9.892,1.273c-2.325,1.27 -4.16,3.278 -6.182,4.96c3.551,-3.503 6.522,-6.91 11.849,-7.373c6.389,-0.555 12.265,3.853 13.208,10.212c0.976,6.576 -2.434,13.34 -6.291,18.422c-4.078,5.375 -9.463,9.711 -15.314,13.027c-5.463,3.094 -11.529,5.327 -17.735,6.355Z" style="fill:#2d3748;fill-rule:nonzero;"/><g id="row"><path d="M94.538,124.08c-0,-1.936 -1.572,-3.508 -3.508,-3.508c-1.936,-0 -3.508,1.572 -3.508,3.508c0,1.936 1.572,3.507 3.508,3.507c1.936,0 3.508,-1.571 3.508,-3.507Z" style="fill:#2d3748;"/><path d="M57.251,124.08c-0,-1.936 -1.572,-3.508 -3.508,-3.508c-1.936,-0 -3.508,1.572 -3.508,3.508c0,1.936 1.572,3.507 3.508,3.507c1.936,0 3.508,-1.571 3.508,-3.507Z" style="fill:#2d3748;"/><path d="M121.18,124.08c0,-1.936 -1.571,-3.508 -3.507,-3.508l-15.361,-0c-1.936,-0 -3.508,1.572 -3.508,3.508c0,1.936 1.572,3.507 3.508,3.507l15.361,0c1.936,0 3.507,-1.571 3.507,-3.507Z" style="fill:#2d3748;"/><path d="M83.256,124.08c-0,-1.936 -1.572,-3.508 -3.508,-3.508l-14.723,-0c-1.936,-0 -3.508,1.572 -3.508,3.508c0,1.936 1.572,3.507 3.508,3.507l14.723,0c1.936,0 3.508,-1.571 3.508,-3.507Z" style="fill:#2d3748;"/></g><g id="row1" serif:id="row"><path d="M61.733,107.657c0,-1.936 -1.572,-3.508 -3.508,-3.508c-1.936,0 -3.507,1.572 -3.507,3.508c-0,1.936 1.571,3.508 3.507,3.508c1.936,-0 3.508,-1.572 3.508,-3.508Z" style="fill:#2d3748;"/><path d="M121.18,107.657c0,-1.936 -1.571,-3.508 -3.507,-3.508l-46.774,0c-1.936,0 -3.508,1.572 -3.508,3.508c0,1.936 1.572,3.508 3.508,3.508l46.774,-0c1.936,-0 3.507,-1.572 3.507,-3.508Z" style="fill:#2d3748;"/></g><g id="row2" serif:id="row"><path d="M77.499,91.234c-0,-1.936 -1.572,-3.508 -3.508,-3.508c-1.936,0 -3.508,1.572 -3.508,3.508c0,1.936 1.572,3.508 3.508,3.508c1.936,-0 3.508,-1.572 3.508,-3.508Z" style="fill:#2d3748;"/><path d="M121.18,91.234c0,-1.936 -1.571,-3.508 -3.507,-3.508l-32.174,0c-1.936,0 -3.508,1.572 -3.508,3.508c-0,1.936 1.572,3.508 3.508,3.508l32.174,-0c1.936,-0 3.507,-1.572 3.507,-3.508Z" style="fill:#2d3748;"/><path d="M65.991,91.234c-0,-1.936 -1.572,-3.508 -3.508,-3.508l-16.954,0c-1.936,0 -3.508,1.572 -3.508,3.508c0,1.936 1.572,3.508 3.508,3.508l16.954,-0c1.936,-0 3.508,-1.572 3.508,-3.508Z" style="fill:#2d3748;"/></g><g id="row3" serif:id="row"><path d="M42.021,74.811c0,-1.936 -1.572,-3.507 -3.507,-3.507c-1.936,-0 -3.508,1.571 -3.508,3.507c-0,1.936 1.572,3.508 3.508,3.508c1.935,-0 3.507,-1.572 3.507,-3.508Z" style="fill:#2d3748;"/><path d="M121.18,74.811c0,-1.936 -1.571,-3.507 -3.507,-3.507l-66.754,-0c-1.936,-0 -3.508,1.571 -3.508,3.507c0,1.936 1.572,3.508 3.508,3.508l66.754,-0c1.936,-0 3.507,-1.572 3.507,-3.508Z" style="fill:#2d3748;"/></g></g></svg>